<svg xmlns="http://www.w3.org/2000/svg" xmlns:xlink="http://www.w3.org/1999/xlink" width="500" zoomAndPan="magnify" viewBox="0 0 375 374.999991" height="500" preserveAspectRatio="xMidYMid meet" version="1.0"><defs><g/></defs><g fill="#292929" fill-opacity="1"><g transform="translate(106.751689, 213.777046)"><g><path d="M 5.78125 0 L 5.78125 -49.375 L 22.8125 -49.375 L 22.8125 -44.171875 L 23 -44.171875 C 27.425781 -48.597656 32.140625 -50.8125 37.140625 -50.8125 C 39.578125 -50.8125 42 -50.488281 44.40625 -49.84375 C 46.8125 -49.207031 49.117188 -48.210938 51.328125 -46.859375 C 53.546875 -45.515625 55.34375 -43.609375 56.71875 -41.140625 C 58.101562 -38.671875 58.796875 -35.800781 58.796875 -32.53125 L 58.796875 0 L 41.765625 0 L 41.765625 -27.90625 C 41.765625 -30.46875 40.945312 -32.710938 39.3125 -34.640625 C 37.675781 -36.566406 35.539062 -37.53125 32.90625 -37.53125 C 30.34375 -37.53125 28.019531 -36.535156 25.9375 -34.546875 C 23.851562 -32.554688 22.8125 -30.34375 22.8125 -27.90625 L 22.8125 0 Z M 5.78125 0 "/></g></g></g><g fill="#292929" fill-opacity="1"><g transform="translate(164.580149, 213.777046)"><g><path d="M 62.171875 -49.375 L 38.6875 -25.796875 L 64.484375 0 L 42.53125 0 L 22.8125 -19.734375 L 22.8125 0 L 5.78125 0 L 5.78125 -82.765625 L 22.8125 -82.765625 L 22.8125 -32.140625 L 40.03125 -49.375 Z M 62.171875 -49.375 "/></g></g></g><g fill="#292929" fill-opacity="1"><g transform="translate(220.965271, 213.777046)"><g><path d="M 32.046875 -36.859375 C 28.835938 -36.859375 26.078125 -35.671875 23.765625 -33.296875 C 21.460938 -30.921875 20.3125 -28.066406 20.3125 -24.734375 C 20.3125 -21.328125 21.460938 -18.4375 23.765625 -16.0625 C 26.078125 -13.695312 28.835938 -12.515625 32.046875 -12.515625 C 33.585938 -12.515625 35.046875 -12.707031 36.421875 -13.09375 C 37.804688 -13.476562 38.816406 -13.863281 39.453125 -14.25 L 40.328125 -14.8125 L 46.09375 -2.984375 C 45.644531 -2.660156 45.019531 -2.257812 44.21875 -1.78125 C 43.414062 -1.300781 41.585938 -0.644531 38.734375 0.1875 C 35.878906 1.019531 32.816406 1.4375 29.546875 1.4375 C 22.296875 1.4375 15.925781 -1.109375 10.4375 -6.203125 C 4.957031 -11.304688 2.21875 -17.421875 2.21875 -24.546875 C 2.21875 -31.722656 4.957031 -37.894531 10.4375 -43.0625 C 15.925781 -48.226562 22.296875 -50.8125 29.546875 -50.8125 C 32.816406 -50.8125 35.832031 -50.425781 38.59375 -49.65625 C 41.351562 -48.882812 43.304688 -48.113281 44.453125 -47.34375 L 46.09375 -46.1875 L 40.328125 -34.546875 C 38.203125 -36.085938 35.441406 -36.859375 32.046875 -36.859375 Z M 32.046875 -36.859375 "/></g></g></g><path stroke-linecap="butt" transform="matrix(0.99932, 0.99932, -0.99932, 0.99932, 27.708721, 178.408303)" fill="none" stroke-linejoin="miter" d="M 0.0000813228 5.001266 L 84.432496 5.001266 " stroke="#292929" stroke-width="10" stroke-opacity="1" stroke-miterlimit="4"/><path stroke-linecap="butt" transform="matrix(-0.99932, 0.99932, -0.99932, -0.99932, 113.103739, 112.989449)" fill="none" stroke-linejoin="miter" d="M 0.000504764 5.001166 L 82.462829 5.001166 " stroke="#292929" stroke-width="10" stroke-opacity="1" stroke-miterlimit="4"/><path stroke-linecap="butt" transform="matrix(-1.003866, -1.003866, 1.003866, -1.003866, 348.770372, 197.012961)" fill="none" stroke-linejoin="miter" d="M 0.00103732 5.000402 L 84.432472 5.000402 " stroke="#292929" stroke-width="10" stroke-opacity="1" stroke-miterlimit="4"/><path stroke-linecap="butt" transform="matrix(1.003866, -1.003866, 1.003866, 1.003866, 262.98693, 262.729377)" fill="none" stroke-linejoin="miter" d="M 0.000129109 5.001419 L 82.464558 4.999473 " stroke="#292929" stroke-width="10" stroke-opacity="1" stroke-miterlimit="4"/></svg>